# xmcd
#
# Track frame offsets:
#	150
#	14575
#	25700
#	38735
#	49175
#	61325
#	74475
#	90750
#	103362
#
# Disc length: 1561 seconds
#
# Revision: 1
# Processed by: cddbd v1.5PL3 Copyright (c) Steve Scherf et al.
# Submitted via: audiograbber 1.80
#
DISCID=71061709
DTITLE=Marty Robbins - Marty Robbins Inducted Into The Hall Of Fame 1982
DYEAR=1900
DGENRE=
TTITLE0=Don't Worry
TTITLE1=Singing The Blues
TTITLE2=Hanging Tree
TTITLE3=Hawaiian Wedding Song
TTITLE4=I'll Go On Alone
TTITLE5=My Isle Of Golden Dreams
TTITLE6=Adio Amigo
TTITLE7=I Couldn't Keep From Crying
TTITLE8=All Around Cowboy
EXTD=King Records, UPC 792014382820
EXTT0=
EXTT1=
EXTT2=
EXTT3=
EXTT4=
EXTT5=
EXTT6=
EXTT7=
EXTT8=
PLAYORDER=
